<mxfile host="app.diagrams.net" modified="2023-11-17T17:00:36.458Z" agent="Mozilla/5.0 (Windows NT 10.0; Win64; x64) AppleWebKit/537.36 (KHTML, like Gecko) Chrome/116.0.0.0 Safari/537.36 OPR/102.0.0.0" etag="kzW-KXvNv9DNsvsT6dEh" version="21.6.8" type="device">
  <diagram name="Página-1" id="WIpVw-bKlIY0GUnOvqk1">
    <mxGraphModel dx="961" dy="591" grid="1" gridSize="10" guides="1" tooltips="1" connect="1" arrows="1" fold="1" page="1" pageScale="1" pageWidth="1169" pageHeight="1654" math="0" shadow="0">
      <root>
        <mxCell id="0" />
        <mxCell id="1" parent="0" />
        <mxCell id="7gXzA5GJ2JUrk8cRCdGT-70" value="Não&lt;br&gt;" style="text;html=1;align=center;verticalAlign=middle;resizable=0;points=[];autosize=1;strokeColor=none;fillColor=none;" vertex="1" parent="1">
          <mxGeometry x="1275" y="538" width="50" height="30" as="geometry" />
        </mxCell>
        <mxCell id="7gXzA5GJ2JUrk8cRCdGT-7" value="Fluxograma de incidentes" style="swimlane;whiteSpace=wrap;html=1;startSize=40;" vertex="1" parent="1">
          <mxGeometry x="740" y="30" width="1370.5" height="1190" as="geometry" />
        </mxCell>
        <mxCell id="7gXzA5GJ2JUrk8cRCdGT-6" value="Suporte N3" style="swimlane;horizontal=0;whiteSpace=wrap;html=1;" vertex="1" parent="7gXzA5GJ2JUrk8cRCdGT-7">
          <mxGeometry y="240" width="1370" height="200" as="geometry" />
        </mxCell>
        <mxCell id="7gXzA5GJ2JUrk8cRCdGT-80" value="Finalizar solicitação" style="rounded=0;whiteSpace=wrap;html=1;" vertex="1" parent="7gXzA5GJ2JUrk8cRCdGT-6">
          <mxGeometry x="1030" y="88" width="120" height="60" as="geometry" />
        </mxCell>
        <mxCell id="7gXzA5GJ2JUrk8cRCdGT-82" value="Receber solicitação" style="rounded=0;whiteSpace=wrap;html=1;" vertex="1" parent="7gXzA5GJ2JUrk8cRCdGT-6">
          <mxGeometry x="100" y="40" width="120" height="60" as="geometry" />
        </mxCell>
        <mxCell id="7gXzA5GJ2JUrk8cRCdGT-84" value="Analisar situação" style="whiteSpace=wrap;html=1;rounded=0;" vertex="1" parent="7gXzA5GJ2JUrk8cRCdGT-6">
          <mxGeometry x="259" y="40" width="120" height="60" as="geometry" />
        </mxCell>
        <mxCell id="7gXzA5GJ2JUrk8cRCdGT-81" value="" style="edgeStyle=orthogonalEdgeStyle;rounded=0;orthogonalLoop=1;jettySize=auto;html=1;" edge="1" parent="7gXzA5GJ2JUrk8cRCdGT-6" source="7gXzA5GJ2JUrk8cRCdGT-82" target="7gXzA5GJ2JUrk8cRCdGT-84">
          <mxGeometry relative="1" as="geometry" />
        </mxCell>
        <mxCell id="7gXzA5GJ2JUrk8cRCdGT-86" value="" style="edgeStyle=orthogonalEdgeStyle;rounded=0;orthogonalLoop=1;jettySize=auto;html=1;entryX=0.5;entryY=1;entryDx=0;entryDy=0;" edge="1" parent="7gXzA5GJ2JUrk8cRCdGT-6" source="7gXzA5GJ2JUrk8cRCdGT-87">
          <mxGeometry relative="1" as="geometry">
            <mxPoint x="590" y="45" as="targetPoint" />
          </mxGeometry>
        </mxCell>
        <mxCell id="7gXzA5GJ2JUrk8cRCdGT-87" value="" style="rhombus;whiteSpace=wrap;html=1;rounded=0;" vertex="1" parent="7gXzA5GJ2JUrk8cRCdGT-6">
          <mxGeometry x="410" y="30" width="80" height="80" as="geometry" />
        </mxCell>
        <mxCell id="7gXzA5GJ2JUrk8cRCdGT-83" value="" style="edgeStyle=orthogonalEdgeStyle;rounded=0;orthogonalLoop=1;jettySize=auto;html=1;" edge="1" parent="7gXzA5GJ2JUrk8cRCdGT-6" source="7gXzA5GJ2JUrk8cRCdGT-84" target="7gXzA5GJ2JUrk8cRCdGT-87">
          <mxGeometry relative="1" as="geometry" />
        </mxCell>
        <mxCell id="7gXzA5GJ2JUrk8cRCdGT-88" value="O N3 consegue resolver?" style="text;html=1;align=center;verticalAlign=middle;resizable=0;points=[];autosize=1;strokeColor=none;fillColor=none;" vertex="1" parent="7gXzA5GJ2JUrk8cRCdGT-6">
          <mxGeometry x="370" width="160" height="30" as="geometry" />
        </mxCell>
        <mxCell id="7gXzA5GJ2JUrk8cRCdGT-90" value="Resolver solicitação" style="whiteSpace=wrap;html=1;rounded=0;" vertex="1" parent="7gXzA5GJ2JUrk8cRCdGT-6">
          <mxGeometry x="520" y="100" width="120" height="60" as="geometry" />
        </mxCell>
        <mxCell id="7gXzA5GJ2JUrk8cRCdGT-85" value="" style="edgeStyle=orthogonalEdgeStyle;rounded=0;orthogonalLoop=1;jettySize=auto;html=1;" edge="1" parent="7gXzA5GJ2JUrk8cRCdGT-6" source="7gXzA5GJ2JUrk8cRCdGT-87" target="7gXzA5GJ2JUrk8cRCdGT-90">
          <mxGeometry relative="1" as="geometry">
            <Array as="points">
              <mxPoint x="450" y="138" />
            </Array>
          </mxGeometry>
        </mxCell>
        <mxCell id="7gXzA5GJ2JUrk8cRCdGT-91" value="Sim" style="text;html=1;align=center;verticalAlign=middle;resizable=0;points=[];autosize=1;strokeColor=none;fillColor=none;" vertex="1" parent="7gXzA5GJ2JUrk8cRCdGT-6">
          <mxGeometry x="450" y="115" width="40" height="30" as="geometry" />
        </mxCell>
        <mxCell id="7gXzA5GJ2JUrk8cRCdGT-92" style="edgeStyle=orthogonalEdgeStyle;rounded=0;orthogonalLoop=1;jettySize=auto;html=1;exitX=1;exitY=0.5;exitDx=0;exitDy=0;entryX=0;entryY=0.5;entryDx=0;entryDy=0;" edge="1" parent="7gXzA5GJ2JUrk8cRCdGT-6" source="7gXzA5GJ2JUrk8cRCdGT-93" target="7gXzA5GJ2JUrk8cRCdGT-80">
          <mxGeometry relative="1" as="geometry" />
        </mxCell>
        <mxCell id="7gXzA5GJ2JUrk8cRCdGT-93" value="Inserir resolução no banco de conhecimento" style="whiteSpace=wrap;html=1;rounded=0;" vertex="1" parent="7gXzA5GJ2JUrk8cRCdGT-6">
          <mxGeometry x="720" y="100" width="120" height="60" as="geometry" />
        </mxCell>
        <mxCell id="7gXzA5GJ2JUrk8cRCdGT-89" value="" style="edgeStyle=orthogonalEdgeStyle;rounded=0;orthogonalLoop=1;jettySize=auto;html=1;" edge="1" parent="7gXzA5GJ2JUrk8cRCdGT-6" source="7gXzA5GJ2JUrk8cRCdGT-90" target="7gXzA5GJ2JUrk8cRCdGT-93">
          <mxGeometry relative="1" as="geometry" />
        </mxCell>
        <mxCell id="7gXzA5GJ2JUrk8cRCdGT-94" value="Não&lt;br&gt;" style="text;html=1;align=center;verticalAlign=middle;resizable=0;points=[];autosize=1;strokeColor=none;fillColor=none;" vertex="1" parent="7gXzA5GJ2JUrk8cRCdGT-6">
          <mxGeometry x="485" y="46" width="50" height="30" as="geometry" />
        </mxCell>
        <mxCell id="7gXzA5GJ2JUrk8cRCdGT-97" value="Encaminhar para o fornecedor" style="rounded=0;whiteSpace=wrap;html=1;" vertex="1" parent="7gXzA5GJ2JUrk8cRCdGT-6">
          <mxGeometry x="590" y="10" width="120" height="60" as="geometry" />
        </mxCell>
        <mxCell id="7gXzA5GJ2JUrk8cRCdGT-37" value="" style="ellipse;whiteSpace=wrap;html=1;aspect=fixed;fillColor=#f8cecc;strokeColor=#b85450;" vertex="1" parent="7gXzA5GJ2JUrk8cRCdGT-6">
          <mxGeometry x="1300" y="130" width="50" height="50" as="geometry" />
        </mxCell>
        <mxCell id="7gXzA5GJ2JUrk8cRCdGT-96" style="edgeStyle=orthogonalEdgeStyle;rounded=0;orthogonalLoop=1;jettySize=auto;html=1;entryX=0.5;entryY=0;entryDx=0;entryDy=0;" edge="1" parent="7gXzA5GJ2JUrk8cRCdGT-6" source="7gXzA5GJ2JUrk8cRCdGT-80" target="7gXzA5GJ2JUrk8cRCdGT-37">
          <mxGeometry relative="1" as="geometry">
            <mxPoint x="1309.9999999999995" y="340" as="targetPoint" />
            <Array as="points">
              <mxPoint x="1325" y="110" />
            </Array>
          </mxGeometry>
        </mxCell>
        <mxCell id="7gXzA5GJ2JUrk8cRCdGT-8" value="Fornecedor" style="swimlane;horizontal=0;whiteSpace=wrap;html=1;" vertex="1" parent="7gXzA5GJ2JUrk8cRCdGT-7">
          <mxGeometry y="40" width="1370" height="200" as="geometry" />
        </mxCell>
        <mxCell id="7gXzA5GJ2JUrk8cRCdGT-101" value="" style="edgeStyle=orthogonalEdgeStyle;rounded=0;orthogonalLoop=1;jettySize=auto;html=1;" edge="1" parent="7gXzA5GJ2JUrk8cRCdGT-8" source="7gXzA5GJ2JUrk8cRCdGT-98" target="7gXzA5GJ2JUrk8cRCdGT-100">
          <mxGeometry relative="1" as="geometry" />
        </mxCell>
        <mxCell id="7gXzA5GJ2JUrk8cRCdGT-98" value="Receber solicitação" style="rounded=0;whiteSpace=wrap;html=1;" vertex="1" parent="7gXzA5GJ2JUrk8cRCdGT-8">
          <mxGeometry x="100" y="10" width="120" height="60" as="geometry" />
        </mxCell>
        <mxCell id="7gXzA5GJ2JUrk8cRCdGT-100" value="Resolver solicitação" style="whiteSpace=wrap;html=1;rounded=0;" vertex="1" parent="7gXzA5GJ2JUrk8cRCdGT-8">
          <mxGeometry x="300" y="10" width="120" height="60" as="geometry" />
        </mxCell>
        <mxCell id="7gXzA5GJ2JUrk8cRCdGT-105" value="Finalizar solicitação" style="rounded=0;whiteSpace=wrap;html=1;" vertex="1" parent="7gXzA5GJ2JUrk8cRCdGT-8">
          <mxGeometry x="780" y="10" width="120" height="60" as="geometry" />
        </mxCell>
        <mxCell id="7gXzA5GJ2JUrk8cRCdGT-11" value="&lt;div style=&quot;text-align: justify;&quot;&gt;Suporte N1&lt;/div&gt;" style="swimlane;horizontal=0;whiteSpace=wrap;html=1;" vertex="1" parent="7gXzA5GJ2JUrk8cRCdGT-7">
          <mxGeometry x="-1" y="722" width="1370" height="270" as="geometry" />
        </mxCell>
        <mxCell id="7gXzA5GJ2JUrk8cRCdGT-22" value="" style="edgeStyle=orthogonalEdgeStyle;rounded=0;orthogonalLoop=1;jettySize=auto;html=1;" edge="1" parent="7gXzA5GJ2JUrk8cRCdGT-11" source="7gXzA5GJ2JUrk8cRCdGT-19" target="7gXzA5GJ2JUrk8cRCdGT-21">
          <mxGeometry relative="1" as="geometry" />
        </mxCell>
        <mxCell id="7gXzA5GJ2JUrk8cRCdGT-19" value="Receber ticket de suporte pela ferramenta" style="whiteSpace=wrap;html=1;rounded=0;" vertex="1" parent="7gXzA5GJ2JUrk8cRCdGT-11">
          <mxGeometry x="250" y="90" width="120" height="60" as="geometry" />
        </mxCell>
        <mxCell id="7gXzA5GJ2JUrk8cRCdGT-24" value="" style="edgeStyle=orthogonalEdgeStyle;rounded=0;orthogonalLoop=1;jettySize=auto;html=1;" edge="1" parent="7gXzA5GJ2JUrk8cRCdGT-11" source="7gXzA5GJ2JUrk8cRCdGT-21" target="7gXzA5GJ2JUrk8cRCdGT-23">
          <mxGeometry relative="1" as="geometry" />
        </mxCell>
        <mxCell id="7gXzA5GJ2JUrk8cRCdGT-21" value="Registrar solicitação de serviço" style="whiteSpace=wrap;html=1;rounded=0;" vertex="1" parent="7gXzA5GJ2JUrk8cRCdGT-11">
          <mxGeometry x="459.5" y="67" width="120" height="60" as="geometry" />
        </mxCell>
        <mxCell id="7gXzA5GJ2JUrk8cRCdGT-26" value="" style="edgeStyle=orthogonalEdgeStyle;rounded=0;orthogonalLoop=1;jettySize=auto;html=1;entryX=0;entryY=0.5;entryDx=0;entryDy=0;" edge="1" parent="7gXzA5GJ2JUrk8cRCdGT-11" target="7gXzA5GJ2JUrk8cRCdGT-25">
          <mxGeometry relative="1" as="geometry">
            <mxPoint x="580" y="209" as="sourcePoint" />
            <mxPoint x="649.9736842105267" y="139.9736842105267" as="targetPoint" />
            <Array as="points">
              <mxPoint x="570" y="209" />
              <mxPoint x="595" y="209" />
              <mxPoint x="595" y="130" />
            </Array>
          </mxGeometry>
        </mxCell>
        <mxCell id="7gXzA5GJ2JUrk8cRCdGT-23" value="Consultar base de conhecimento" style="whiteSpace=wrap;html=1;rounded=0;" vertex="1" parent="7gXzA5GJ2JUrk8cRCdGT-11">
          <mxGeometry x="459.5" y="189" width="120" height="60" as="geometry" />
        </mxCell>
        <mxCell id="7gXzA5GJ2JUrk8cRCdGT-29" value="" style="edgeStyle=orthogonalEdgeStyle;rounded=0;orthogonalLoop=1;jettySize=auto;html=1;" edge="1" parent="7gXzA5GJ2JUrk8cRCdGT-11" source="7gXzA5GJ2JUrk8cRCdGT-25">
          <mxGeometry relative="1" as="geometry">
            <mxPoint x="770" y="130" as="targetPoint" />
          </mxGeometry>
        </mxCell>
        <mxCell id="7gXzA5GJ2JUrk8cRCdGT-25" value="" style="rhombus;whiteSpace=wrap;html=1;rounded=0;" vertex="1" parent="7gXzA5GJ2JUrk8cRCdGT-11">
          <mxGeometry x="619.5" y="90" width="80" height="80" as="geometry" />
        </mxCell>
        <mxCell id="7gXzA5GJ2JUrk8cRCdGT-27" value="É realmente um incidente?" style="text;html=1;strokeColor=none;fillColor=none;align=center;verticalAlign=middle;whiteSpace=wrap;rounded=0;" vertex="1" parent="7gXzA5GJ2JUrk8cRCdGT-11">
          <mxGeometry x="629.5" y="37" width="60" height="30" as="geometry" />
        </mxCell>
        <mxCell id="7gXzA5GJ2JUrk8cRCdGT-42" value="" style="edgeStyle=orthogonalEdgeStyle;rounded=0;orthogonalLoop=1;jettySize=auto;html=1;" edge="1" parent="7gXzA5GJ2JUrk8cRCdGT-11" source="7gXzA5GJ2JUrk8cRCdGT-36" target="7gXzA5GJ2JUrk8cRCdGT-41">
          <mxGeometry relative="1" as="geometry" />
        </mxCell>
        <mxCell id="7gXzA5GJ2JUrk8cRCdGT-46" value="" style="edgeStyle=orthogonalEdgeStyle;rounded=0;orthogonalLoop=1;jettySize=auto;html=1;" edge="1" parent="7gXzA5GJ2JUrk8cRCdGT-11" source="7gXzA5GJ2JUrk8cRCdGT-36" target="7gXzA5GJ2JUrk8cRCdGT-45">
          <mxGeometry relative="1" as="geometry" />
        </mxCell>
        <mxCell id="7gXzA5GJ2JUrk8cRCdGT-36" value="" style="rhombus;whiteSpace=wrap;html=1;" vertex="1" parent="7gXzA5GJ2JUrk8cRCdGT-11">
          <mxGeometry x="771" y="90" width="80" height="80" as="geometry" />
        </mxCell>
        <mxCell id="7gXzA5GJ2JUrk8cRCdGT-30" value="Sim&lt;br&gt;" style="text;html=1;align=center;verticalAlign=middle;resizable=0;points=[];autosize=1;strokeColor=none;fillColor=none;" vertex="1" parent="7gXzA5GJ2JUrk8cRCdGT-11">
          <mxGeometry x="699.5" y="105" width="40" height="30" as="geometry" />
        </mxCell>
        <mxCell id="7gXzA5GJ2JUrk8cRCdGT-41" value="Encaminhar solicitação para o nível 2" style="whiteSpace=wrap;html=1;" vertex="1" parent="7gXzA5GJ2JUrk8cRCdGT-11">
          <mxGeometry x="751" y="7" width="120" height="60" as="geometry" />
        </mxCell>
        <mxCell id="7gXzA5GJ2JUrk8cRCdGT-43" value="Nível 1 consegue resolver?" style="text;html=1;align=center;verticalAlign=middle;resizable=0;points=[];autosize=1;strokeColor=none;fillColor=none;" vertex="1" parent="7gXzA5GJ2JUrk8cRCdGT-11">
          <mxGeometry x="739.5" y="170" width="170" height="30" as="geometry" />
        </mxCell>
        <mxCell id="7gXzA5GJ2JUrk8cRCdGT-44" value="Não&lt;br&gt;" style="text;html=1;align=center;verticalAlign=middle;resizable=0;points=[];autosize=1;strokeColor=none;fillColor=none;" vertex="1" parent="7gXzA5GJ2JUrk8cRCdGT-11">
          <mxGeometry x="801" y="67" width="50" height="30" as="geometry" />
        </mxCell>
        <mxCell id="7gXzA5GJ2JUrk8cRCdGT-48" value="" style="edgeStyle=orthogonalEdgeStyle;rounded=0;orthogonalLoop=1;jettySize=auto;html=1;" edge="1" parent="7gXzA5GJ2JUrk8cRCdGT-11" source="7gXzA5GJ2JUrk8cRCdGT-45" target="7gXzA5GJ2JUrk8cRCdGT-47">
          <mxGeometry relative="1" as="geometry" />
        </mxCell>
        <mxCell id="7gXzA5GJ2JUrk8cRCdGT-45" value="Resolver o incidente" style="whiteSpace=wrap;html=1;" vertex="1" parent="7gXzA5GJ2JUrk8cRCdGT-11">
          <mxGeometry x="911" y="100" width="120" height="60" as="geometry" />
        </mxCell>
        <mxCell id="7gXzA5GJ2JUrk8cRCdGT-49" style="edgeStyle=orthogonalEdgeStyle;rounded=0;orthogonalLoop=1;jettySize=auto;html=1;" edge="1" parent="7gXzA5GJ2JUrk8cRCdGT-11" source="7gXzA5GJ2JUrk8cRCdGT-47">
          <mxGeometry relative="1" as="geometry">
            <mxPoint x="1160" y="40" as="targetPoint" />
            <Array as="points">
              <mxPoint x="1250" y="40" />
            </Array>
          </mxGeometry>
        </mxCell>
        <mxCell id="7gXzA5GJ2JUrk8cRCdGT-47" value="Inserir resolução na base de conhecimento" style="whiteSpace=wrap;html=1;" vertex="1" parent="7gXzA5GJ2JUrk8cRCdGT-11">
          <mxGeometry x="1190" y="100" width="120" height="60" as="geometry" />
        </mxCell>
        <mxCell id="7gXzA5GJ2JUrk8cRCdGT-50" value="Sim&lt;br&gt;" style="text;html=1;align=center;verticalAlign=middle;resizable=0;points=[];autosize=1;strokeColor=none;fillColor=none;" vertex="1" parent="7gXzA5GJ2JUrk8cRCdGT-11">
          <mxGeometry x="851" y="107" width="40" height="30" as="geometry" />
        </mxCell>
        <mxCell id="7gXzA5GJ2JUrk8cRCdGT-40" value="Não&lt;br&gt;" style="text;html=1;align=center;verticalAlign=middle;resizable=0;points=[];autosize=1;strokeColor=none;fillColor=none;" vertex="1" parent="7gXzA5GJ2JUrk8cRCdGT-11">
          <mxGeometry x="660" y="208" width="50" height="30" as="geometry" />
        </mxCell>
        <mxCell id="7gXzA5GJ2JUrk8cRCdGT-12" value="Suporte N2" style="swimlane;horizontal=0;whiteSpace=wrap;html=1;" vertex="1" parent="7gXzA5GJ2JUrk8cRCdGT-11">
          <mxGeometry x="2" y="-282" width="1368" height="282" as="geometry" />
        </mxCell>
        <mxCell id="7gXzA5GJ2JUrk8cRCdGT-38" value="Finalizar solicitação" style="rounded=0;whiteSpace=wrap;html=1;" vertex="1" parent="7gXzA5GJ2JUrk8cRCdGT-12">
          <mxGeometry x="1099" y="110" width="120" height="60" as="geometry" />
        </mxCell>
        <mxCell id="7gXzA5GJ2JUrk8cRCdGT-56" value="" style="edgeStyle=orthogonalEdgeStyle;rounded=0;orthogonalLoop=1;jettySize=auto;html=1;" edge="1" parent="7gXzA5GJ2JUrk8cRCdGT-12" source="7gXzA5GJ2JUrk8cRCdGT-54" target="7gXzA5GJ2JUrk8cRCdGT-55">
          <mxGeometry relative="1" as="geometry" />
        </mxCell>
        <mxCell id="7gXzA5GJ2JUrk8cRCdGT-54" value="Receber solicitação" style="rounded=0;whiteSpace=wrap;html=1;" vertex="1" parent="7gXzA5GJ2JUrk8cRCdGT-12">
          <mxGeometry x="169" y="62" width="120" height="60" as="geometry" />
        </mxCell>
        <mxCell id="7gXzA5GJ2JUrk8cRCdGT-59" value="" style="edgeStyle=orthogonalEdgeStyle;rounded=0;orthogonalLoop=1;jettySize=auto;html=1;" edge="1" parent="7gXzA5GJ2JUrk8cRCdGT-12" source="7gXzA5GJ2JUrk8cRCdGT-55" target="7gXzA5GJ2JUrk8cRCdGT-58">
          <mxGeometry relative="1" as="geometry" />
        </mxCell>
        <mxCell id="7gXzA5GJ2JUrk8cRCdGT-55" value="Analisar situação" style="whiteSpace=wrap;html=1;rounded=0;" vertex="1" parent="7gXzA5GJ2JUrk8cRCdGT-12">
          <mxGeometry x="328" y="62" width="120" height="60" as="geometry" />
        </mxCell>
        <mxCell id="7gXzA5GJ2JUrk8cRCdGT-62" value="" style="edgeStyle=orthogonalEdgeStyle;rounded=0;orthogonalLoop=1;jettySize=auto;html=1;" edge="1" parent="7gXzA5GJ2JUrk8cRCdGT-12" source="7gXzA5GJ2JUrk8cRCdGT-58" target="7gXzA5GJ2JUrk8cRCdGT-61">
          <mxGeometry relative="1" as="geometry">
            <Array as="points">
              <mxPoint x="519" y="160" />
            </Array>
          </mxGeometry>
        </mxCell>
        <mxCell id="7gXzA5GJ2JUrk8cRCdGT-65" value="" style="edgeStyle=orthogonalEdgeStyle;rounded=0;orthogonalLoop=1;jettySize=auto;html=1;entryX=0.5;entryY=1;entryDx=0;entryDy=0;" edge="1" parent="7gXzA5GJ2JUrk8cRCdGT-12" source="7gXzA5GJ2JUrk8cRCdGT-58" target="7gXzA5GJ2JUrk8cRCdGT-68">
          <mxGeometry relative="1" as="geometry">
            <mxPoint x="599" y="90" as="targetPoint" />
          </mxGeometry>
        </mxCell>
        <mxCell id="7gXzA5GJ2JUrk8cRCdGT-58" value="" style="rhombus;whiteSpace=wrap;html=1;rounded=0;" vertex="1" parent="7gXzA5GJ2JUrk8cRCdGT-12">
          <mxGeometry x="479" y="52" width="80" height="80" as="geometry" />
        </mxCell>
        <mxCell id="7gXzA5GJ2JUrk8cRCdGT-60" value="O N2 consegue resolver?" style="text;html=1;align=center;verticalAlign=middle;resizable=0;points=[];autosize=1;strokeColor=none;fillColor=none;" vertex="1" parent="7gXzA5GJ2JUrk8cRCdGT-12">
          <mxGeometry x="439" y="22" width="160" height="30" as="geometry" />
        </mxCell>
        <mxCell id="7gXzA5GJ2JUrk8cRCdGT-72" value="" style="edgeStyle=orthogonalEdgeStyle;rounded=0;orthogonalLoop=1;jettySize=auto;html=1;" edge="1" parent="7gXzA5GJ2JUrk8cRCdGT-12" source="7gXzA5GJ2JUrk8cRCdGT-61" target="7gXzA5GJ2JUrk8cRCdGT-71">
          <mxGeometry relative="1" as="geometry" />
        </mxCell>
        <mxCell id="7gXzA5GJ2JUrk8cRCdGT-61" value="Resolver solicitação" style="whiteSpace=wrap;html=1;rounded=0;" vertex="1" parent="7gXzA5GJ2JUrk8cRCdGT-12">
          <mxGeometry x="589" y="122" width="120" height="60" as="geometry" />
        </mxCell>
        <mxCell id="7gXzA5GJ2JUrk8cRCdGT-63" value="Sim" style="text;html=1;align=center;verticalAlign=middle;resizable=0;points=[];autosize=1;strokeColor=none;fillColor=none;" vertex="1" parent="7gXzA5GJ2JUrk8cRCdGT-12">
          <mxGeometry x="519" y="137" width="40" height="30" as="geometry" />
        </mxCell>
        <mxCell id="7gXzA5GJ2JUrk8cRCdGT-68" value="Encaminhar para o nível 3" style="rounded=0;whiteSpace=wrap;html=1;" vertex="1" parent="7gXzA5GJ2JUrk8cRCdGT-12">
          <mxGeometry x="599" y="7" width="120" height="60" as="geometry" />
        </mxCell>
        <mxCell id="7gXzA5GJ2JUrk8cRCdGT-73" style="edgeStyle=orthogonalEdgeStyle;rounded=0;orthogonalLoop=1;jettySize=auto;html=1;exitX=1;exitY=0.5;exitDx=0;exitDy=0;entryX=0;entryY=0.5;entryDx=0;entryDy=0;" edge="1" parent="7gXzA5GJ2JUrk8cRCdGT-12" source="7gXzA5GJ2JUrk8cRCdGT-71" target="7gXzA5GJ2JUrk8cRCdGT-38">
          <mxGeometry relative="1" as="geometry" />
        </mxCell>
        <mxCell id="7gXzA5GJ2JUrk8cRCdGT-71" value="Inserir resolução no banco de conhecimento" style="whiteSpace=wrap;html=1;rounded=0;" vertex="1" parent="7gXzA5GJ2JUrk8cRCdGT-12">
          <mxGeometry x="789" y="122" width="120" height="60" as="geometry" />
        </mxCell>
        <mxCell id="7gXzA5GJ2JUrk8cRCdGT-32" value="" style="edgeStyle=orthogonalEdgeStyle;rounded=0;orthogonalLoop=1;jettySize=auto;html=1;entryX=0.5;entryY=1;entryDx=0;entryDy=0;exitX=0.5;exitY=1;exitDx=0;exitDy=0;" edge="1" parent="7gXzA5GJ2JUrk8cRCdGT-11" source="7gXzA5GJ2JUrk8cRCdGT-25" target="7gXzA5GJ2JUrk8cRCdGT-38">
          <mxGeometry relative="1" as="geometry">
            <mxPoint x="660" y="214.97000000000025" as="sourcePoint" />
            <mxPoint x="1161.5000000000005" y="-38.02999999999997" as="targetPoint" />
            <Array as="points">
              <mxPoint x="660" y="232" />
              <mxPoint x="1162" y="232" />
              <mxPoint x="1162" y="-92" />
              <mxPoint x="1161" y="-92" />
            </Array>
          </mxGeometry>
        </mxCell>
        <mxCell id="7gXzA5GJ2JUrk8cRCdGT-57" style="edgeStyle=orthogonalEdgeStyle;rounded=0;orthogonalLoop=1;jettySize=auto;html=1;entryX=0.5;entryY=1;entryDx=0;entryDy=0;" edge="1" parent="7gXzA5GJ2JUrk8cRCdGT-11" source="7gXzA5GJ2JUrk8cRCdGT-41" target="7gXzA5GJ2JUrk8cRCdGT-54">
          <mxGeometry relative="1" as="geometry">
            <Array as="points">
              <mxPoint x="812" y="-92" />
              <mxPoint x="231" y="-92" />
            </Array>
          </mxGeometry>
        </mxCell>
        <mxCell id="7gXzA5GJ2JUrk8cRCdGT-13" value="Cliente" style="swimlane;horizontal=0;whiteSpace=wrap;html=1;" vertex="1" parent="7gXzA5GJ2JUrk8cRCdGT-7">
          <mxGeometry x="-1" y="990" width="1370" height="200" as="geometry" />
        </mxCell>
        <mxCell id="7gXzA5GJ2JUrk8cRCdGT-17" value="" style="edgeStyle=orthogonalEdgeStyle;rounded=0;orthogonalLoop=1;jettySize=auto;html=1;" edge="1" parent="7gXzA5GJ2JUrk8cRCdGT-13" source="7gXzA5GJ2JUrk8cRCdGT-15" target="7gXzA5GJ2JUrk8cRCdGT-16">
          <mxGeometry relative="1" as="geometry" />
        </mxCell>
        <mxCell id="7gXzA5GJ2JUrk8cRCdGT-15" value="" style="ellipse;whiteSpace=wrap;html=1;aspect=fixed;fillColor=#d5e8d4;strokeColor=#82b366;" vertex="1" parent="7gXzA5GJ2JUrk8cRCdGT-13">
          <mxGeometry x="29.5" y="50" width="50" height="50" as="geometry" />
        </mxCell>
        <mxCell id="7gXzA5GJ2JUrk8cRCdGT-16" value="Solicitar serviço via help desk" style="rounded=0;whiteSpace=wrap;html=1;" vertex="1" parent="7gXzA5GJ2JUrk8cRCdGT-13">
          <mxGeometry x="109.5" y="45" width="120" height="60" as="geometry" />
        </mxCell>
        <mxCell id="7gXzA5GJ2JUrk8cRCdGT-20" value="" style="edgeStyle=orthogonalEdgeStyle;rounded=0;orthogonalLoop=1;jettySize=auto;html=1;" edge="1" parent="7gXzA5GJ2JUrk8cRCdGT-7" source="7gXzA5GJ2JUrk8cRCdGT-16" target="7gXzA5GJ2JUrk8cRCdGT-19">
          <mxGeometry relative="1" as="geometry" />
        </mxCell>
        <mxCell id="7gXzA5GJ2JUrk8cRCdGT-95" style="edgeStyle=orthogonalEdgeStyle;rounded=0;orthogonalLoop=1;jettySize=auto;html=1;" edge="1" parent="7gXzA5GJ2JUrk8cRCdGT-7" source="7gXzA5GJ2JUrk8cRCdGT-68" target="7gXzA5GJ2JUrk8cRCdGT-82">
          <mxGeometry relative="1" as="geometry">
            <Array as="points">
              <mxPoint x="660" y="420" />
              <mxPoint x="160" y="420" />
            </Array>
          </mxGeometry>
        </mxCell>
        <mxCell id="7gXzA5GJ2JUrk8cRCdGT-99" style="edgeStyle=orthogonalEdgeStyle;rounded=0;orthogonalLoop=1;jettySize=auto;html=1;entryX=0.5;entryY=1;entryDx=0;entryDy=0;" edge="1" parent="7gXzA5GJ2JUrk8cRCdGT-7" source="7gXzA5GJ2JUrk8cRCdGT-97" target="7gXzA5GJ2JUrk8cRCdGT-98">
          <mxGeometry relative="1" as="geometry">
            <Array as="points">
              <mxPoint x="650" y="210" />
              <mxPoint x="160" y="210" />
            </Array>
          </mxGeometry>
        </mxCell>
        <mxCell id="7gXzA5GJ2JUrk8cRCdGT-103" value="" style="edgeStyle=orthogonalEdgeStyle;rounded=0;orthogonalLoop=1;jettySize=auto;html=1;" edge="1" parent="7gXzA5GJ2JUrk8cRCdGT-7" source="7gXzA5GJ2JUrk8cRCdGT-100">
          <mxGeometry relative="1" as="geometry">
            <mxPoint x="780" y="80" as="targetPoint" />
          </mxGeometry>
        </mxCell>
        <mxCell id="7gXzA5GJ2JUrk8cRCdGT-39" value="" style="edgeStyle=orthogonalEdgeStyle;rounded=0;orthogonalLoop=1;jettySize=auto;html=1;" edge="1" parent="7gXzA5GJ2JUrk8cRCdGT-7" source="7gXzA5GJ2JUrk8cRCdGT-38" target="7gXzA5GJ2JUrk8cRCdGT-37">
          <mxGeometry relative="1" as="geometry" />
        </mxCell>
        <mxCell id="7gXzA5GJ2JUrk8cRCdGT-106" style="edgeStyle=orthogonalEdgeStyle;rounded=0;orthogonalLoop=1;jettySize=auto;html=1;entryX=0.5;entryY=0;entryDx=0;entryDy=0;" edge="1" parent="7gXzA5GJ2JUrk8cRCdGT-7" source="7gXzA5GJ2JUrk8cRCdGT-105" target="7gXzA5GJ2JUrk8cRCdGT-37">
          <mxGeometry relative="1" as="geometry" />
        </mxCell>
      </root>
    </mxGraphModel>
  </diagram>
</mxfile>
